<?xml version="1.0" encoding="UTF-8" standalone="no"?>
<!DOCTYPE svg PUBLIC "-//W3C//DTD SVG 1.1//EN"
 "http://www.w3.org/Graphics/SVG/1.1/DTD/svg11.dtd">
<!-- Generated by graphviz version 2.50.0 (20211209.0339)
 -->
<!-- Title: snakemake_dag Pages: 1 -->
<svg width="825pt" height="548pt"
 viewBox="0.00 0.00 825.47 548.00" xmlns="http://www.w3.org/2000/svg" xmlns:xlink="http://www.w3.org/1999/xlink">
<g id="graph0" class="graph" transform="scale(1 1) rotate(0) translate(4 544)">
<title>snakemake_dag</title>
<polygon fill="white" stroke="transparent" points="-4,4 -4,-544 821.47,-544 821.47,4 -4,4"/>
<!-- 0 -->
<g id="node1" class="node">
<title>0</title>
<path fill="none" stroke="#afd856" stroke-width="2" d="M356.47,-36C356.47,-36 326.47,-36 326.47,-36 320.47,-36 314.47,-30 314.47,-24 314.47,-24 314.47,-12 314.47,-12 314.47,-6 320.47,0 326.47,0 326.47,0 356.47,0 356.47,0 362.47,0 368.47,-6 368.47,-12 368.47,-12 368.47,-24 368.47,-24 368.47,-30 362.47,-36 356.47,-36"/>
<text text-anchor="middle" x="341.47" y="-15.5" font-family="sans" font-size="10.00">all</text>
</g>
<!-- 1 -->
<g id="node2" class="node">
<title>1</title>
<path fill="none" stroke="#56a9d8" stroke-width="2" d="M59.47,-180C59.47,-180 29.47,-180 29.47,-180 23.47,-180 17.47,-174 17.47,-168 17.47,-168 17.47,-156 17.47,-156 17.47,-150 23.47,-144 29.47,-144 29.47,-144 59.47,-144 59.47,-144 65.47,-144 71.47,-150 71.47,-156 71.47,-156 71.47,-168 71.47,-168 71.47,-174 65.47,-180 59.47,-180"/>
<text text-anchor="middle" x="44.47" y="-159.5" font-family="sans" font-size="10.00">fastqc</text>
</g>
<!-- 1&#45;&gt;0 -->
<g id="edge15" class="edge">
<title>1&#45;&gt;0</title>
<path fill="none" stroke="grey" stroke-width="2" d="M42.29,-143.68C40.8,-123.59 41.79,-90.84 60.47,-72 94.07,-38.12 235.63,-25.24 304.09,-20.92"/>
<polygon fill="grey" stroke="grey" stroke-width="2" points="304.65,-24.39 314.42,-20.3 304.23,-17.41 304.65,-24.39"/>
</g>
<!-- 2 -->
<g id="node3" class="node">
<title>2</title>
<path fill="none" stroke="#5692d8" stroke-width="2" d="M111.47,-108C111.47,-108 81.47,-108 81.47,-108 75.47,-108 69.47,-102 69.47,-96 69.47,-96 69.47,-84 69.47,-84 69.47,-78 75.47,-72 81.47,-72 81.47,-72 111.47,-72 111.47,-72 117.47,-72 123.47,-78 123.47,-84 123.47,-84 123.47,-96 123.47,-96 123.47,-102 117.47,-108 111.47,-108"/>
<text text-anchor="middle" x="96.47" y="-87.5" font-family="sans" font-size="10.00">multiqc</text>
</g>
<!-- 1&#45;&gt;2 -->
<g id="edge19" class="edge">
<title>1&#45;&gt;2</title>
<path fill="none" stroke="grey" stroke-width="2" d="M57.33,-143.7C63.5,-135.39 71.01,-125.28 77.8,-116.14"/>
<polygon fill="grey" stroke="grey" stroke-width="2" points="80.61,-118.22 83.77,-108.1 74.99,-114.04 80.61,-118.22"/>
</g>
<!-- 2&#45;&gt;0 -->
<g id="edge16" class="edge">
<title>2&#45;&gt;0</title>
<path fill="none" stroke="grey" stroke-width="2" d="M123.62,-77.13C128.2,-75.3 132.94,-73.52 137.47,-72 194.88,-52.74 263.31,-36.24 304.52,-26.97"/>
<polygon fill="grey" stroke="grey" stroke-width="2" points="305.39,-30.36 314.39,-24.77 303.87,-23.53 305.39,-30.36"/>
</g>
<!-- 3 -->
<g id="node4" class="node">
<title>3</title>
<path fill="none" stroke="#56c9d8" stroke-width="2" d="M149.47,-180C149.47,-180 101.47,-180 101.47,-180 95.47,-180 89.47,-174 89.47,-168 89.47,-168 89.47,-156 89.47,-156 89.47,-150 95.47,-144 101.47,-144 101.47,-144 149.47,-144 149.47,-144 155.47,-144 161.47,-150 161.47,-156 161.47,-156 161.47,-168 161.47,-168 161.47,-174 155.47,-180 149.47,-180"/>
<text text-anchor="middle" x="125.47" y="-159.5" font-family="sans" font-size="10.00">fastqc_trim</text>
</g>
<!-- 3&#45;&gt;0 -->
<g id="edge14" class="edge">
<title>3&#45;&gt;0</title>
<path fill="none" stroke="grey" stroke-width="2" d="M130.83,-143.71C137.9,-123.65 152.26,-90.93 175.47,-72 212.82,-41.55 267.95,-28.48 304.28,-22.94"/>
<polygon fill="grey" stroke="grey" stroke-width="2" points="305.04,-26.37 314.46,-21.51 304.07,-19.44 305.04,-26.37"/>
</g>
<!-- 3&#45;&gt;2 -->
<g id="edge18" class="edge">
<title>3&#45;&gt;2</title>
<path fill="none" stroke="grey" stroke-width="2" d="M118.3,-143.7C115.04,-135.81 111.1,-126.3 107.47,-117.55"/>
<polygon fill="grey" stroke="grey" stroke-width="2" points="110.62,-116 103.56,-108.1 104.15,-118.68 110.62,-116"/>
</g>
<!-- 4 -->
<g id="node5" class="node">
<title>4</title>
<path fill="none" stroke="#d85656" stroke-width="2" d="M88.47,-252C88.47,-252 14.47,-252 14.47,-252 8.47,-252 2.47,-246 2.47,-240 2.47,-240 2.47,-228 2.47,-228 2.47,-222 8.47,-216 14.47,-216 14.47,-216 88.47,-216 88.47,-216 94.47,-216 100.47,-222 100.47,-228 100.47,-228 100.47,-240 100.47,-240 100.47,-246 94.47,-252 88.47,-252"/>
<text text-anchor="middle" x="51.47" y="-231.5" font-family="sans" font-size="10.00">trimmomatic_pe</text>
</g>
<!-- 4&#45;&gt;0 -->
<g id="edge1" class="edge">
<title>4&#45;&gt;0</title>
<path fill="none" stroke="grey" stroke-width="2" d="M32.43,-215.84C23.3,-206.3 13.3,-193.62 8.47,-180 -8.26,-132.82 1.03,-102.83 40.47,-72 80.93,-40.38 232.29,-26.27 303.71,-21.28"/>
<polygon fill="grey" stroke="grey" stroke-width="2" points="304.31,-24.74 314.05,-20.58 303.84,-17.76 304.31,-24.74"/>
</g>
<!-- 4&#45;&gt;3 -->
<g id="edge20" class="edge">
<title>4&#45;&gt;3</title>
<path fill="none" stroke="grey" stroke-width="2" d="M69.76,-215.7C78.9,-207.05 90.11,-196.45 100.07,-187.03"/>
<polygon fill="grey" stroke="grey" stroke-width="2" points="102.53,-189.52 107.39,-180.1 97.72,-184.43 102.53,-189.52"/>
</g>
<!-- 5 -->
<g id="node6" class="node">
<title>5</title>
<path fill="none" stroke="#d8cb56" stroke-width="2" d="M362.47,-540C362.47,-540 298.47,-540 298.47,-540 292.47,-540 286.47,-534 286.47,-528 286.47,-528 286.47,-516 286.47,-516 286.47,-510 292.47,-504 298.47,-504 298.47,-504 362.47,-504 362.47,-504 368.47,-504 374.47,-510 374.47,-516 374.47,-516 374.47,-528 374.47,-528 374.47,-534 368.47,-540 362.47,-540"/>
<text text-anchor="middle" x="330.47" y="-519.5" font-family="sans" font-size="10.00">qiime2_import</text>
</g>
<!-- 5&#45;&gt;0 -->
<g id="edge5" class="edge">
<title>5&#45;&gt;0</title>
<path fill="none" stroke="grey" stroke-width="2" d="M293.79,-503.88C252.02,-481.55 189.47,-438.23 189.47,-379 189.47,-379 189.47,-379 189.47,-161 189.47,-97.95 260.16,-54.86 305.13,-33.82"/>
<polygon fill="grey" stroke="grey" stroke-width="2" points="306.63,-36.98 314.3,-29.67 303.74,-30.61 306.63,-36.98"/>
</g>
<!-- 6 -->
<g id="node7" class="node">
<title>6</title>
<path fill="none" stroke="#8fd856" stroke-width="2" d="M495.97,-468C495.97,-468 446.97,-468 446.97,-468 440.97,-468 434.97,-462 434.97,-456 434.97,-456 434.97,-444 434.97,-444 434.97,-438 440.97,-432 446.97,-432 446.97,-432 495.97,-432 495.97,-432 501.97,-432 507.97,-438 507.97,-444 507.97,-444 507.97,-456 507.97,-456 507.97,-462 501.97,-468 495.97,-468"/>
<text text-anchor="middle" x="471.47" y="-447.5" font-family="sans" font-size="10.00">rm_primers</text>
</g>
<!-- 5&#45;&gt;6 -->
<g id="edge21" class="edge">
<title>5&#45;&gt;6</title>
<path fill="none" stroke="grey" stroke-width="2" d="M364.96,-503.88C383.91,-494.47 407.6,-482.71 427.83,-472.67"/>
<polygon fill="grey" stroke="grey" stroke-width="2" points="429.45,-475.77 436.85,-468.19 426.33,-469.5 429.45,-475.77"/>
</g>
<!-- 6&#45;&gt;0 -->
<g id="edge7" class="edge">
<title>6&#45;&gt;0</title>
<path fill="none" stroke="grey" stroke-width="2" d="M508.17,-442.07C597.22,-424.2 817.47,-373.31 817.47,-307 817.47,-307 817.47,-307 817.47,-161 817.47,-116.27 807.29,-97.4 770.47,-72 707.28,-28.4 471.04,-20.64 378.75,-19.28"/>
<polygon fill="grey" stroke="grey" stroke-width="2" points="378.78,-15.78 368.74,-19.15 378.69,-22.78 378.78,-15.78"/>
</g>
<!-- 7 -->
<g id="node8" class="node">
<title>7</title>
<path fill="none" stroke="#70d856" stroke-width="2" d="M504.47,-396C504.47,-396 438.47,-396 438.47,-396 432.47,-396 426.47,-390 426.47,-384 426.47,-384 426.47,-372 426.47,-372 426.47,-366 432.47,-360 438.47,-360 438.47,-360 504.47,-360 504.47,-360 510.47,-360 516.47,-366 516.47,-372 516.47,-372 516.47,-384 516.47,-384 516.47,-390 510.47,-396 504.47,-396"/>
<text text-anchor="middle" x="471.47" y="-375.5" font-family="sans" font-size="10.00">dada2_denoise</text>
</g>
<!-- 6&#45;&gt;7 -->
<g id="edge22" class="edge">
<title>6&#45;&gt;7</title>
<path fill="none" stroke="grey" stroke-width="2" d="M471.47,-431.7C471.47,-423.98 471.47,-414.71 471.47,-406.11"/>
<polygon fill="grey" stroke="grey" stroke-width="2" points="474.97,-406.1 471.47,-396.1 467.97,-406.1 474.97,-406.1"/>
</g>
<!-- 7&#45;&gt;0 -->
<g id="edge8" class="edge">
<title>7&#45;&gt;0</title>
<path fill="none" stroke="grey" stroke-width="2" d="M516.59,-376.16C602.14,-371.94 779.47,-349.38 779.47,-235 779.47,-235 779.47,-235 779.47,-161 779.47,-117.81 774.98,-97.96 740.47,-72 683.86,-29.41 466.63,-21.04 378.72,-19.4"/>
<polygon fill="grey" stroke="grey" stroke-width="2" points="378.72,-15.9 368.66,-19.23 378.6,-22.9 378.72,-15.9"/>
</g>
<!-- 8 -->
<g id="node9" class="node">
<title>8</title>
<path fill="none" stroke="#59d856" stroke-width="2" d="M281.47,-324C281.47,-324 229.47,-324 229.47,-324 223.47,-324 217.47,-318 217.47,-312 217.47,-312 217.47,-300 217.47,-300 217.47,-294 223.47,-288 229.47,-288 229.47,-288 281.47,-288 281.47,-288 287.47,-288 293.47,-294 293.47,-300 293.47,-300 293.47,-312 293.47,-312 293.47,-318 287.47,-324 281.47,-324"/>
<text text-anchor="middle" x="255.47" y="-303.5" font-family="sans" font-size="10.00">dada2_stats</text>
</g>
<!-- 7&#45;&gt;8 -->
<g id="edge23" class="edge">
<title>7&#45;&gt;8</title>
<path fill="none" stroke="grey" stroke-width="2" d="M426.47,-363.46C394.52,-353.73 350.42,-340.02 303.4,-324.25"/>
<polygon fill="grey" stroke="grey" stroke-width="2" points="304.24,-320.84 293.64,-320.96 302,-327.47 304.24,-320.84"/>
</g>
<!-- 9 -->
<g id="node10" class="node">
<title>9</title>
<path fill="none" stroke="#56d873" stroke-width="2" d="M368.97,-324C368.97,-324 323.97,-324 323.97,-324 317.97,-324 311.97,-318 311.97,-312 311.97,-312 311.97,-300 311.97,-300 311.97,-294 317.97,-288 323.97,-288 323.97,-288 368.97,-288 368.97,-288 374.97,-288 380.97,-294 380.97,-300 380.97,-300 380.97,-312 380.97,-312 380.97,-318 374.97,-324 368.97,-324"/>
<text text-anchor="middle" x="346.47" y="-303.5" font-family="sans" font-size="10.00">assign_tax</text>
</g>
<!-- 7&#45;&gt;9 -->
<g id="edge24" class="edge">
<title>7&#45;&gt;9</title>
<path fill="none" stroke="grey" stroke-width="2" d="M440.89,-359.88C424.4,-350.64 403.85,-339.13 386.14,-329.21"/>
<polygon fill="grey" stroke="grey" stroke-width="2" points="387.6,-326.02 377.17,-324.19 384.18,-332.13 387.6,-326.02"/>
</g>
<!-- 10 -->
<g id="node11" class="node">
<title>10</title>
<path fill="none" stroke="#56d8a9" stroke-width="2" d="M337.47,-252C337.47,-252 305.47,-252 305.47,-252 299.47,-252 293.47,-246 293.47,-240 293.47,-240 293.47,-228 293.47,-228 293.47,-222 299.47,-216 305.47,-216 305.47,-216 337.47,-216 337.47,-216 343.47,-216 349.47,-222 349.47,-228 349.47,-228 349.47,-240 349.47,-240 349.47,-246 343.47,-252 337.47,-252"/>
<text text-anchor="middle" x="321.47" y="-231.5" font-family="sans" font-size="10.00">gen_tax</text>
</g>
<!-- 7&#45;&gt;10 -->
<g id="edge26" class="edge">
<title>7&#45;&gt;10</title>
<path fill="none" stroke="grey" stroke-width="2" d="M457.13,-359.82C441.34,-341.3 414.82,-311.34 389.47,-288 378.22,-277.64 365.11,-267.1 353.43,-258.18"/>
<polygon fill="grey" stroke="grey" stroke-width="2" points="355.31,-255.22 345.22,-252 351.1,-260.81 355.31,-255.22"/>
</g>
<!-- 11 -->
<g id="node12" class="node">
<title>11</title>
<path fill="none" stroke="#d8ac56" stroke-width="2" d="M493.47,-324C493.47,-324 449.47,-324 449.47,-324 443.47,-324 437.47,-318 437.47,-312 437.47,-312 437.47,-300 437.47,-300 437.47,-294 443.47,-288 449.47,-288 449.47,-288 493.47,-288 493.47,-288 499.47,-288 505.47,-294 505.47,-300 505.47,-300 505.47,-312 505.47,-312 505.47,-318 499.47,-324 493.47,-324"/>
<text text-anchor="middle" x="471.47" y="-303.5" font-family="sans" font-size="10.00">phylogeny</text>
</g>
<!-- 7&#45;&gt;11 -->
<g id="edge27" class="edge">
<title>7&#45;&gt;11</title>
<path fill="none" stroke="grey" stroke-width="2" d="M471.47,-359.7C471.47,-351.98 471.47,-342.71 471.47,-334.11"/>
<polygon fill="grey" stroke="grey" stroke-width="2" points="474.97,-334.1 471.47,-324.1 467.97,-334.1 474.97,-334.1"/>
</g>
<!-- 12 -->
<g id="node13" class="node">
<title>12</title>
<path fill="none" stroke="#d88d56" stroke-width="2" d="M499.47,-252C499.47,-252 443.47,-252 443.47,-252 437.47,-252 431.47,-246 431.47,-240 431.47,-240 431.47,-228 431.47,-228 431.47,-222 437.47,-216 443.47,-216 443.47,-216 499.47,-216 499.47,-216 505.47,-216 511.47,-222 511.47,-228 511.47,-228 511.47,-240 511.47,-240 511.47,-246 505.47,-252 499.47,-252"/>
<text text-anchor="middle" x="471.47" y="-231.5" font-family="sans" font-size="10.00">core_metrics</text>
</g>
<!-- 7&#45;&gt;12 -->
<g id="edge29" class="edge">
<title>7&#45;&gt;12</title>
<path fill="none" stroke="grey" stroke-width="2" d="M490.51,-359.84C499.65,-350.3 509.64,-337.62 514.47,-324 519.82,-308.92 519.82,-303.08 514.47,-288 510.81,-277.68 504.19,-267.9 497.21,-259.61"/>
<polygon fill="grey" stroke="grey" stroke-width="2" points="499.8,-257.26 490.51,-252.16 494.6,-261.94 499.8,-257.26"/>
</g>
<!-- 16 -->
<g id="node17" class="node">
<title>16</title>
<path fill="none" stroke="#c6d856" stroke-width="2" d="M714.47,-180C714.47,-180 658.47,-180 658.47,-180 652.47,-180 646.47,-174 646.47,-168 646.47,-168 646.47,-156 646.47,-156 646.47,-150 652.47,-144 658.47,-144 658.47,-144 714.47,-144 714.47,-144 720.47,-144 726.47,-150 726.47,-156 726.47,-156 726.47,-168 726.47,-168 726.47,-174 720.47,-180 714.47,-180"/>
<text text-anchor="middle" x="686.47" y="-159.5" font-family="sans" font-size="10.00">sample_filter</text>
</g>
<!-- 7&#45;&gt;16 -->
<g id="edge33" class="edge">
<title>7&#45;&gt;16</title>
<path fill="none" stroke="grey" stroke-width="2" d="M491.56,-359.97C503.39,-349.76 518.53,-336.4 531.47,-324 580.03,-277.48 633.88,-220.16 663.6,-187.98"/>
<polygon fill="grey" stroke="grey" stroke-width="2" points="666.42,-190.09 670.62,-180.36 661.27,-185.35 666.42,-190.09"/>
</g>
<!-- 8&#45;&gt;0 -->
<g id="edge9" class="edge">
<title>8&#45;&gt;0</title>
<path fill="none" stroke="grey" stroke-width="2" d="M254.02,-287.85C251.4,-247.35 249.52,-143.77 290.47,-72 296.49,-61.45 305.08,-51.42 313.5,-42.98"/>
<polygon fill="grey" stroke="grey" stroke-width="2" points="315.98,-45.45 320.78,-36.01 311.14,-40.4 315.98,-45.45"/>
</g>
<!-- 9&#45;&gt;0 -->
<g id="edge10" class="edge">
<title>9&#45;&gt;0</title>
<path fill="none" stroke="grey" stroke-width="2" d="M316.97,-287.94C304.49,-278.99 291.29,-266.79 284.47,-252 251.77,-181.02 297.64,-88.91 324.46,-44.78"/>
<polygon fill="grey" stroke="grey" stroke-width="2" points="327.54,-46.45 329.86,-36.12 321.6,-42.75 327.54,-46.45"/>
</g>
<!-- 9&#45;&gt;10 -->
<g id="edge25" class="edge">
<title>9&#45;&gt;10</title>
<path fill="none" stroke="grey" stroke-width="2" d="M340.29,-287.7C337.48,-279.81 334.08,-270.3 330.95,-261.55"/>
<polygon fill="grey" stroke="grey" stroke-width="2" points="334.24,-260.34 327.58,-252.1 327.65,-262.7 334.24,-260.34"/>
</g>
<!-- 10&#45;&gt;0 -->
<g id="edge12" class="edge">
<title>10&#45;&gt;0</title>
<path fill="none" stroke="grey" stroke-width="2" d="M320.88,-215.97C320.12,-186.46 319.73,-124.01 327.47,-72 328.73,-63.53 330.84,-54.46 333.04,-46.27"/>
<polygon fill="grey" stroke="grey" stroke-width="2" points="336.46,-47.04 335.82,-36.46 329.72,-45.13 336.46,-47.04"/>
</g>
<!-- 11&#45;&gt;0 -->
<g id="edge4" class="edge">
<title>11&#45;&gt;0</title>
<path fill="none" stroke="grey" stroke-width="2" d="M452.26,-287.85C442.29,-278.13 430.55,-265.28 422.47,-252 380.96,-183.74 356.94,-91.24 346.96,-46.07"/>
<polygon fill="grey" stroke="grey" stroke-width="2" points="350.35,-45.2 344.83,-36.16 343.51,-46.67 350.35,-45.2"/>
</g>
<!-- 11&#45;&gt;12 -->
<g id="edge28" class="edge">
<title>11&#45;&gt;12</title>
<path fill="none" stroke="grey" stroke-width="2" d="M471.47,-287.7C471.47,-279.98 471.47,-270.71 471.47,-262.11"/>
<polygon fill="grey" stroke="grey" stroke-width="2" points="474.97,-262.1 471.47,-252.1 467.97,-262.1 474.97,-262.1"/>
</g>
<!-- 12&#45;&gt;0 -->
<g id="edge3" class="edge">
<title>12&#45;&gt;0</title>
<path fill="none" stroke="grey" stroke-width="2" d="M461.05,-215.85C438.33,-178.44 384.19,-89.32 357.25,-44.98"/>
<polygon fill="grey" stroke="grey" stroke-width="2" points="360.12,-42.96 351.94,-36.23 354.14,-46.6 360.12,-42.96"/>
</g>
<!-- 13 -->
<g id="node14" class="node">
<title>13</title>
<path fill="none" stroke="#56d8c9" stroke-width="2" d="M487.47,-108C487.47,-108 419.47,-108 419.47,-108 413.47,-108 407.47,-102 407.47,-96 407.47,-96 407.47,-84 407.47,-84 407.47,-78 413.47,-72 419.47,-72 419.47,-72 487.47,-72 487.47,-72 493.47,-72 499.47,-78 499.47,-84 499.47,-84 499.47,-96 499.47,-96 499.47,-102 493.47,-108 487.47,-108"/>
<text text-anchor="middle" x="453.47" y="-87.5" font-family="sans" font-size="10.00">diversity_alpha</text>
</g>
<!-- 12&#45;&gt;13 -->
<g id="edge30" class="edge">
<title>12&#45;&gt;13</title>
<path fill="none" stroke="grey" stroke-width="2" d="M469.3,-215.87C466.23,-191.67 460.6,-147.21 456.94,-118.39"/>
<polygon fill="grey" stroke="grey" stroke-width="2" points="460.38,-117.67 455.65,-108.19 453.44,-118.55 460.38,-117.67"/>
</g>
<!-- 15 -->
<g id="node16" class="node">
<title>15</title>
<path fill="none" stroke="#d87556" stroke-width="2" d="M609.97,-180C609.97,-180 510.97,-180 510.97,-180 504.97,-180 498.97,-174 498.97,-168 498.97,-168 498.97,-156 498.97,-156 498.97,-150 504.97,-144 510.97,-144 510.97,-144 609.97,-144 609.97,-144 615.97,-144 621.97,-150 621.97,-156 621.97,-156 621.97,-168 621.97,-168 621.97,-174 615.97,-180 609.97,-180"/>
<text text-anchor="middle" x="560.47" y="-159.5" font-family="sans" font-size="10.00">filter_distance_matrix</text>
</g>
<!-- 12&#45;&gt;15 -->
<g id="edge32" class="edge">
<title>12&#45;&gt;15</title>
<path fill="none" stroke="grey" stroke-width="2" d="M493.47,-215.7C504.68,-206.88 518.47,-196.03 530.63,-186.47"/>
<polygon fill="grey" stroke="grey" stroke-width="2" points="533.03,-189.04 538.72,-180.1 528.7,-183.54 533.03,-189.04"/>
</g>
<!-- 13&#45;&gt;0 -->
<g id="edge13" class="edge">
<title>13&#45;&gt;0</title>
<path fill="none" stroke="grey" stroke-width="2" d="M426.07,-71.88C411.32,-62.66 392.95,-51.17 377.1,-41.26"/>
<polygon fill="grey" stroke="grey" stroke-width="2" points="378.92,-38.28 368.59,-35.95 375.21,-44.22 378.92,-38.28"/>
</g>
<!-- 14 -->
<g id="node15" class="node">
<title>14</title>
<path fill="none" stroke="#56d892" stroke-width="2" d="M591.47,-108C591.47,-108 529.47,-108 529.47,-108 523.47,-108 517.47,-102 517.47,-96 517.47,-96 517.47,-84 517.47,-84 517.47,-78 523.47,-72 529.47,-72 529.47,-72 591.47,-72 591.47,-72 597.47,-72 603.47,-78 603.47,-84 603.47,-84 603.47,-96 603.47,-96 603.47,-102 597.47,-108 591.47,-108"/>
<text text-anchor="middle" x="560.47" y="-87.5" font-family="sans" font-size="10.00">diversity_beta</text>
</g>
<!-- 14&#45;&gt;0 -->
<g id="edge11" class="edge">
<title>14&#45;&gt;0</title>
<path fill="none" stroke="grey" stroke-width="2" d="M517.35,-74.87C514.35,-73.9 511.36,-72.93 508.47,-72 463.87,-57.63 412.47,-41.36 378.6,-30.68"/>
<polygon fill="grey" stroke="grey" stroke-width="2" points="379.27,-27.22 368.69,-27.56 377.17,-33.9 379.27,-27.22"/>
</g>
<!-- 15&#45;&gt;0 -->
<g id="edge2" class="edge">
<title>15&#45;&gt;0</title>
<path fill="none" stroke="grey" stroke-width="2" d="M582.63,-143.9C604.21,-125.18 631.24,-94.79 612.47,-72 583.33,-36.61 446.46,-24.52 379.1,-20.66"/>
<polygon fill="grey" stroke="grey" stroke-width="2" points="379.09,-17.16 368.92,-20.11 378.71,-24.15 379.09,-17.16"/>
</g>
<!-- 15&#45;&gt;14 -->
<g id="edge31" class="edge">
<title>15&#45;&gt;14</title>
<path fill="none" stroke="grey" stroke-width="2" d="M560.47,-143.7C560.47,-135.98 560.47,-126.71 560.47,-118.11"/>
<polygon fill="grey" stroke="grey" stroke-width="2" points="563.97,-118.1 560.47,-108.1 556.97,-118.1 563.97,-118.1"/>
</g>
<!-- 16&#45;&gt;0 -->
<g id="edge6" class="edge">
<title>16&#45;&gt;0</title>
<path fill="none" stroke="grey" stroke-width="2" d="M703.13,-143.82C719.86,-124.47 740.75,-92.99 722.47,-72 678.12,-21.05 465.92,-17.53 378.86,-18.29"/>
<polygon fill="grey" stroke="grey" stroke-width="2" points="378.6,-14.79 368.64,-18.41 378.68,-21.79 378.6,-14.79"/>
</g>
<!-- 17 -->
<g id="node18" class="node">
<title>17</title>
<path fill="none" stroke="#5673d8" stroke-width="2" d="M701.47,-108C701.47,-108 671.47,-108 671.47,-108 665.47,-108 659.47,-102 659.47,-96 659.47,-96 659.47,-84 659.47,-84 659.47,-78 665.47,-72 671.47,-72 671.47,-72 701.47,-72 701.47,-72 707.47,-72 713.47,-78 713.47,-84 713.47,-84 713.47,-96 713.47,-96 713.47,-102 707.47,-108 701.47,-108"/>
<text text-anchor="middle" x="686.47" y="-87.5" font-family="sans" font-size="10.00">aldex2</text>
</g>
<!-- 16&#45;&gt;17 -->
<g id="edge34" class="edge">
<title>16&#45;&gt;17</title>
<path fill="none" stroke="grey" stroke-width="2" d="M686.47,-143.7C686.47,-135.98 686.47,-126.71 686.47,-118.11"/>
<polygon fill="grey" stroke="grey" stroke-width="2" points="689.97,-118.1 686.47,-108.1 682.97,-118.1 689.97,-118.1"/>
</g>
<!-- 17&#45;&gt;0 -->
<g id="edge17" class="edge">
<title>17&#45;&gt;0</title>
<path fill="none" stroke="grey" stroke-width="2" d="M659.43,-76.81C654.83,-75.02 650.06,-73.33 645.47,-72 551.52,-44.69 436.9,-29.37 378.92,-22.84"/>
<polygon fill="grey" stroke="grey" stroke-width="2" points="379.09,-19.33 368.77,-21.72 378.32,-26.29 379.09,-19.33"/>
</g>
</g>
</svg>
